<svg version="1.1" id="Layer_1" xmlns="http://www.w3.org/2000/svg" xmlns:xlink="http://www.w3.org/1999/xlink" x="0px" y="0px"
	 width="36.859px" height="45px" fill="#f4af1c" viewBox="0 0 36.859 45" enable-background="new 0 0 36.859 45" xml:space="preserve">
<g>
	<g>
		<path d="M2.759,8.909c0,0,5.004,2.574,4.214,6.686c1.136-2.31,1.586-5.918,6.374-6.78
			C13.347,9.013,7.75,5.573,2.759,8.909z"/>
		<path d="M34.823,2.436c0,0-2.023,2.187-10.099,4.347C16.416,9.359,8.316,8.877,8.363,22.575
			C8.313,23.715,7.781,30.1,2,38.373c0.591-0.002,9.537-5.328,12.79-11.529l0.083-0.169c0.435-1.067,0.841-1.68,3.19-2.413
			c3.955-1.256,10.295-2.945,12.54-10.151c0,0-0.369,0.196-1.029,0.482c-0.292,0.125-2.851,1.017-5.979,1.198
			c-3.877,0.228-5.26,1.062-5.26,1.062c1.169-1.316,2.518-2.054,3.694-2.466c0.638-0.166,1.278-0.293,1.912-0.366
			c0.339-0.048,0.66-0.097,0.975-0.149l0.053-0.001c0,0-0.013,0-0.038,0c7.324-1.22,7.942-3.879,8.81-6.517
			C34.977,3.595,34.823,2.436,34.823,2.436z"/>
	</g>
</g>
</svg>